<svg xmlns="http://www.w3.org/2000/svg" viewBox="0 0 16 16" shape-rendering="crispEdges"><rect width="16" height="16" fill="#0c0a08"/><rect x="6" y="1" width="1" height="1" fill="#181310"/><rect x="7" y="1" width="1" height="1" fill="#181310"/><rect x="8" y="1" width="1" height="1" fill="#181310"/><rect x="9" y="1" width="1" height="1" fill="#181310"/><rect x="5" y="2" width="1" height="1" fill="#181310"/><rect x="6" y="2" width="1" height="1" fill="#3e2f23"/><rect x="7" y="2" width="1" height="1" fill="#3e2f23"/><rect x="8" y="2" width="1" height="1" fill="#3e2f23"/><rect x="9" y="2" width="1" height="1" fill="#3e2f23"/><rect x="10" y="2" width="1" height="1" fill="#181310"/><rect x="5" y="3" width="1" height="1" fill="#181310"/><rect x="6" y="3" width="1" height="1" fill="#d9a066"/><rect x="7" y="3" width="1" height="1" fill="#d9a066"/><rect x="8" y="3" width="1" height="1" fill="#d9a066"/><rect x="9" y="3" width="1" height="1" fill="#d9a066"/><rect x="10" y="3" width="1" height="1" fill="#181310"/><rect x="5" y="4" width="1" height="1" fill="#181310"/><rect x="6" y="4" width="1" height="1" fill="#d9a066"/><rect x="7" y="4" width="1" height="1" fill="#181310"/><rect x="8" y="4" width="1" height="1" fill="#d9a066"/><rect x="9" y="4" width="1" height="1" fill="#181310"/><rect x="10" y="4" width="1" height="1" fill="#d9a066"/><rect x="5" y="5" width="1" height="1" fill="#181310"/><rect x="6" y="5" width="1" height="1" fill="#d9a066"/><rect x="7" y="5" width="1" height="1" fill="#d9a066"/><rect x="8" y="5" width="1" height="1" fill="#d9a066"/><rect x="9" y="5" width="1" height="1" fill="#d9a066"/><rect x="10" y="5" width="1" height="1" fill="#181310"/><rect x="6" y="6" width="1" height="1" fill="#181310"/><rect x="7" y="6" width="1" height="1" fill="#a8703d"/><rect x="8" y="6" width="1" height="1" fill="#a8703d"/><rect x="9" y="6" width="1" height="1" fill="#181310"/><rect x="4" y="7" width="1" height="1" fill="#181310"/><rect x="5" y="7" width="1" height="1" fill="#c07f2e"/><rect x="6" y="7" width="1" height="1" fill="#c07f2e"/><rect x="7" y="7" width="1" height="1" fill="#c07f2e"/><rect x="8" y="7" width="1" height="1" fill="#c07f2e"/><rect x="9" y="7" width="1" height="1" fill="#c07f2e"/><rect x="10" y="7" width="1" height="1" fill="#c07f2e"/><rect x="11" y="7" width="1" height="1" fill="#181310"/><rect x="3" y="8" width="1" height="1" fill="#181310"/><rect x="4" y="8" width="1" height="1" fill="#c07f2e"/><rect x="5" y="8" width="1" height="1" fill="#c07f2e"/><rect x="6" y="8" width="1" height="1" fill="#8a5620"/><rect x="7" y="8" width="1" height="1" fill="#c07f2e"/><rect x="8" y="8" width="1" height="1" fill="#c07f2e"/><rect x="9" y="8" width="1" height="1" fill="#8a5620"/><rect x="10" y="8" width="1" height="1" fill="#c07f2e"/><rect x="11" y="8" width="1" height="1" fill="#c07f2e"/><rect x="12" y="8" width="1" height="1" fill="#181310"/><rect x="3" y="9" width="1" height="1" fill="#d9a066"/><rect x="4" y="9" width="1" height="1" fill="#c07f2e"/><rect x="5" y="9" width="1" height="1" fill="#c07f2e"/><rect x="6" y="9" width="1" height="1" fill="#c07f2e"/><rect x="7" y="9" width="1" height="1" fill="#c07f2e"/><rect x="8" y="9" width="1" height="1" fill="#c07f2e"/><rect x="9" y="9" width="1" height="1" fill="#c07f2e"/><rect x="10" y="9" width="1" height="1" fill="#c07f2e"/><rect x="11" y="9" width="1" height="1" fill="#c07f2e"/><rect x="12" y="9" width="1" height="1" fill="#d9a066"/><rect x="3" y="10" width="1" height="1" fill="#181310"/><rect x="4" y="10" width="1" height="1" fill="#8a5620"/><rect x="5" y="10" width="1" height="1" fill="#c07f2e"/><rect x="6" y="10" width="1" height="1" fill="#c07f2e"/><rect x="7" y="10" width="1" height="1" fill="#c07f2e"/><rect x="8" y="10" width="1" height="1" fill="#c07f2e"/><rect x="9" y="10" width="1" height="1" fill="#c07f2e"/><rect x="10" y="10" width="1" height="1" fill="#c07f2e"/><rect x="11" y="10" width="1" height="1" fill="#8a5620"/><rect x="12" y="10" width="1" height="1" fill="#181310"/><rect x="4" y="11" width="1" height="1" fill="#181310"/><rect x="5" y="11" width="1" height="1" fill="#44404d"/><rect x="6" y="11" width="1" height="1" fill="#44404d"/><rect x="7" y="11" width="1" height="1" fill="#44404d"/><rect x="8" y="11" width="1" height="1" fill="#44404d"/><rect x="9" y="11" width="1" height="1" fill="#44404d"/><rect x="10" y="11" width="1" height="1" fill="#44404d"/><rect x="11" y="11" width="1" height="1" fill="#181310"/><rect x="4" y="12" width="1" height="1" fill="#181310"/><rect x="5" y="12" width="1" height="1" fill="#44404d"/><rect x="6" y="12" width="1" height="1" fill="#44404d"/><rect x="7" y="12" width="1" height="1" fill="#181310"/><rect x="8" y="12" width="1" height="1" fill="#181310"/><rect x="9" y="12" width="1" height="1" fill="#44404d"/><rect x="10" y="12" width="1" height="1" fill="#44404d"/><rect x="11" y="12" width="1" height="1" fill="#181310"/><rect x="5" y="13" width="1" height="1" fill="#181310"/><rect x="6" y="13" width="1" height="1" fill="#44404d"/><rect x="7" y="13" width="1" height="1" fill="#181310"/><rect x="9" y="13" width="1" height="1" fill="#181310"/><rect x="10" y="13" width="1" height="1" fill="#44404d"/><rect x="11" y="13" width="1" height="1" fill="#181310"/><rect x="5" y="14" width="1" height="1" fill="#181310"/><rect x="6" y="14" width="1" height="1" fill="#2a2320"/><rect x="7" y="14" width="1" height="1" fill="#181310"/><rect x="9" y="14" width="1" height="1" fill="#181310"/><rect x="10" y="14" width="1" height="1" fill="#2a2320"/><rect x="11" y="14" width="1" height="1" fill="#181310"/><rect x="4" y="15" width="1" height="1" fill="#181310"/><rect x="5" y="15" width="1" height="1" fill="#2a2320"/><rect x="6" y="15" width="1" height="1" fill="#2a2320"/><rect x="7" y="15" width="1" height="1" fill="#181310"/><rect x="9" y="15" width="1" height="1" fill="#181310"/><rect x="10" y="15" width="1" height="1" fill="#2a2320"/><rect x="11" y="15" width="1" height="1" fill="#2a2320"/><rect x="12" y="15" width="1" height="1" fill="#181310"/></svg>
